<svg xmlns="http://www.w3.org/2000/svg" width="360" height="540" viewBox="0 0 360 540"><g transform="translate(0,-512.362)" id="g3044">
    <rect rx="29.944447" ry="29.944447" y="512.86218" x="0.5" height="539" width="359" id="rect6472-33" style="fill:#ffffff;stroke:#000000;stroke-width:0.99999976" />
    <path style="fill:#d0021b;fill-opacity:1;stroke:none" id="rect3980-7-6-2-9-9" d="m 30,542.36208 -10,35.00001 0,4.99999 12,0 0,10 5,0 0,-10 3,0 0,-4.99999 -3,0 0,-14.99999 -5,0 0,14.99999 -6.8,0 9.99999,-35.00001 z" />
    <path style="fill:#d0021b;fill-opacity:1;stroke:none" id="rect3980-7-6-2-9-9-8" d="m 330,1022.3622 10,-35.00004 0,-5 -12,0 0,-10 -5,0 0,10 -3,0 0,5 3,0 0,15.00004 5,0 0,-15.00004 6.8,0 -9.99999,35.00004 z" />
    <path id="path3204-24-55" d="m 90,557.36218 c 0,0 6,15 13,25 7,10 17,20 17,20 0,0 -10,10 -17,20 -7,10 -13,25 -13,25 0,0 -6,-15 -13,-25 -7,-10 -17,-20 -17,-20 0,0 10,-10 17,-20 7,-10 13,-25 13,-25" style="fill:#d0021b;stroke:none" />
    <path id="path3204-24-1-32" d="m 270,557.36218 c 0,0 6,15 13,25 7,10 17,20 17,20 0,0 -10,10 -17,20 -7,10 -13,25 -13,25 0,0 -6,-15 -13,-25 -7,-10 -17,-20 -17,-20 0,0 10,-10 17,-20 7,-10 13,-25 13,-25" style="fill:#d0021b;stroke:none" />
    <path id="path3204-24-7-8" d="m 90,917.36218 c 0,0 6,15 13,25 7,10 17,20 17,20 0,0 -10,10 -17,20 -7,10 -13,25.00002 -13,25.00002 0,0 -6,-15.00002 -13,-25.00002 -7,-10 -17,-20 -17,-20 0,0 10,-10 17,-20 7,-10 13,-25 13,-25" style="fill:#d0021b;stroke:none" />
    <path id="path3204-24-4-25" d="m 270,917.36218 c 0,0 6,15 13,25 7,10 17,20 17,20 0,0 -10,10 -17,20 -7,10 -13,25.00002 -13,25.00002 0,0 -6,-15.00002 -13,-25.00002 -7,-10 -17,-20 -17,-20 0,0 10,-10 17,-20 7,-10 13,-25 13,-25" style="fill:#d0021b;stroke:none" />
    <path id="path3204-24-1-0-3" d="m 30,602.36218 c 0,0 3,7.5 6.5,12.5 3.5,5 8.5,10 8.5,10 0,0 -5,5 -8.5,10 -3.5,5 -6.5,12.5 -6.5,12.5 0,0 -3,-7.5 -6.5,-12.5 -3.5,-5 -8.5,-10 -8.5,-10 0,0 5,-5 8.5,-10 3.5,-5 6.5,-12.5 6.5,-12.5" style="fill:#d0021b;stroke:none" />
    <path id="path3204-24-1-9-6" d="m 330,917.36218 c 0,0 3,7.5 6.5,12.5 3.5,5 8.5,10 8.5,10 0,0 -5,5 -8.5,10 -3.5,5 -6.5,12.5 -6.5,12.5 0,0 -3,-7.5 -6.5,-12.5 -3.5,-5 -8.5,-10 -8.5,-10 0,0 5,-5 8.5,-10 3.5,-5 6.5,-12.5 6.5,-12.5" style="fill:#d0021b;stroke:none" />
  </g>
  </svg>
